<?xml version="1.0" standalone="no"?>
<!DOCTYPE svg PUBLIC "-//W3C//DTD SVG 20010904//EN"
 "http://www.w3.org/TR/2001/REC-SVG-20010904/DTD/svg10.dtd">
<svg version="1.0" xmlns="http://www.w3.org/2000/svg"
 width="282.000000pt" height="282.000000pt" viewBox="0 0 282.000000 282.000000"
 preserveAspectRatio="xMidYMid meet">
<metadata>
Created by potrace 1.14, written by Peter Selinger 2001-2017
</metadata>
<g transform="translate(0.000000,282.000000) scale(0.100000,-0.100000)"
fill="#000000" stroke="none">
<path d="M0 1410 l0 -1410 1410 0 1410 0 0 1410 0 1410 -1410 0 -1410 0 0
-1410z m1665 878 c304 -62 493 -240 524 -494 l7 -64 -35 0 c-78 -2 -369 -2
-418 -1 -41 1 -53 5 -53 16 0 29 -40 94 -72 117 -50 36 -96 48 -186 48 -135 0
-215 -39 -232 -113 -10 -46 12 -93 59 -124 34 -23 134 -57 201 -68 447 -76
648 -189 732 -410 23 -58 32 -218 18 -282 -63 -275 -342 -431 -769 -431 -205
1 -332 21 -471 78 -220 88 -345 259 -366 496 l-7 74 251 0 250 0 6 -44 c20
-128 146 -208 327 -207 166 2 260 64 249 165 -4 40 -66 101 -113 110 -6 2 -24
8 -38 14 -14 5 -39 13 -55 15 -16 3 -72 15 -124 26 -52 12 -106 23 -120 26
-307 56 -500 180 -558 359 -56 174 -8 368 124 499 45 45 167 127 188 127 8 0
17 4 20 8 7 12 143 52 230 67 104 19 322 15 431 -7z"/>
</g>
</svg>
