<svg width="345" height="109" viewBox="0 0 345 109" fill="none" xmlns="http://www.w3.org/2000/svg">
<path fill-rule="evenodd" clip-rule="evenodd" d="M345 0H0V109H345V0ZM128.256 53.456C128.425 53.79 128.631 54.1988 128.631 54.82V61.715C128.631 63.5913 128.213 64.585 127.923 65.2731C127.769 65.6376 127.651 65.9163 127.651 66.195C127.651 66.72 127.966 67 128.631 67H133.286C133.286 67 134.266 67 134.266 66.195C134.266 65.9163 134.149 65.6376 133.995 65.2731C133.705 64.585 133.286 63.5913 133.286 61.715V53.805C134.406 52.16 135.841 51.04 136.961 51.04C138.889 51.04 138.819 53.1732 138.717 56.3072L138.711 56.465C138.631 58.7158 138.401 60.5627 138.206 62.125C138.061 63.2836 137.936 64.2858 137.906 65.18C137.871 66.475 138.431 67 139.026 67H143.436C143.996 67 144.451 66.72 144.451 66.195C144.451 65.7005 144.212 65.3977 143.953 65.071C143.718 64.7732 143.467 64.4556 143.366 63.955C143.229 63.2525 143.109 61.0906 142.985 58.8611C142.856 56.5364 142.722 54.1383 142.561 53.245C142.106 50.655 140.111 49.15 137.871 49.15C135.946 49.15 134.476 50.27 133.286 51.74V51.005C133.286 49.85 132.831 49.5 132.271 49.5C131.816 49.5 131.291 49.745 130.976 50.025L128.631 51.95C127.826 52.6071 127.996 52.9432 128.256 53.456ZM146.473 52.09C145.143 53.175 145.388 53.84 146.473 54.96V61.715C146.473 63.5913 146.054 64.585 145.764 65.2731C145.611 65.6376 145.493 65.9163 145.493 66.195C145.493 66.195 145.493 67 146.473 67H151.128C151.128 67 152.108 67 152.108 66.195C152.108 65.9163 151.991 65.6376 151.837 65.2731C151.547 64.585 151.128 63.5913 151.128 61.715V51.145C151.128 49.885 150.708 49.5 150.218 49.5C149.728 49.5 149.168 49.85 148.818 50.165L146.473 52.09ZM148.818 40.75C147.033 40.75 145.633 42.22 145.633 43.97C145.633 45.755 147.033 47.155 148.818 47.155C150.568 47.155 151.968 45.755 151.968 43.97C151.968 42.22 150.568 40.75 148.818 40.75ZM154.13 43.2C152.8 44.285 153.045 44.95 154.13 46.07V61.715C154.13 63.5913 153.711 64.585 153.421 65.2731C153.267 65.6376 153.15 65.9163 153.15 66.195C153.15 66.72 153.465 67 154.13 67H158.785C158.785 67 159.765 67 159.765 66.195C159.765 65.9163 159.647 65.6376 159.493 65.2731C159.203 64.585 158.785 63.5913 158.785 61.715V57.725C161.34 57.725 162.74 62.24 163.3 65.18C163.545 66.44 163.825 67 164.42 67H168.83C169.39 67 169.88 66.825 169.88 66.195C169.88 65.6769 169.595 65.4008 169.27 65.084C169.001 64.823 168.704 64.5344 168.515 64.06C168.473 63.9551 168.423 63.8233 168.365 63.669C167.748 62.0216 166.172 57.8151 162.46 56.535C165.155 55.695 167.78 54.155 168.515 51.32C168.587 51.1434 168.654 51.0038 168.711 50.8828C168.848 50.5964 168.935 50.4149 168.935 50.095C168.935 49.71 168.62 49.5 167.955 49.5H165.855C165.855 49.5 164.875 49.5 164.875 50.095C164.875 50.2355 164.937 50.3985 165.006 50.5817C165.11 50.8552 165.231 51.1738 165.19 51.53C164.91 53.91 163.265 55.625 158.785 56.15V42.255C158.785 41.1 158.33 40.75 157.77 40.75C157.315 40.75 156.79 40.995 156.475 41.275L154.13 43.2ZM169.522 58.25C169.522 63.71 172.427 67.35 177.817 67.35C183.207 67.35 186.112 63.71 186.112 58.25C186.112 52.79 183.207 49.15 177.817 49.15C172.427 49.15 169.522 52.79 169.522 58.25ZM177.817 66.195C176.347 66.195 174.667 63.71 174.667 58.25C174.667 52.79 176.347 50.305 177.817 50.305C179.287 50.305 180.967 52.79 180.967 58.25C180.967 63.71 179.287 66.195 177.817 66.195ZM187.762 44.706C187.931 45.04 188.138 45.4488 188.138 46.07V61.715C188.138 63.5913 187.719 64.585 187.429 65.2731C187.276 65.6376 187.158 65.9163 187.158 66.195C187.158 66.195 187.158 67 188.138 67H192.793C192.793 67 193.773 67 193.773 66.195C193.773 65.9163 193.656 65.6376 193.502 65.2731C193.212 64.585 192.793 63.5913 192.793 61.715V42.255C192.793 41.1 192.338 40.75 191.778 40.75C191.323 40.75 190.798 40.995 190.483 41.275L188.138 43.2C187.333 43.8571 187.503 44.1932 187.762 44.706ZM200.767 56.006C197.828 57.215 194.815 58.4549 194.815 62.345C194.815 64.83 196.705 67.385 199.715 67.385C201.01 67.385 202.515 66.825 203.53 66.055C203.705 66.72 204.125 67 204.545 67H208.955C209.515 67 209.97 66.72 209.97 66.195C209.97 65.7005 209.73 65.3977 209.471 65.071C209.236 64.7732 208.985 64.4556 208.885 63.955C208.747 63.2525 208.627 61.0906 208.503 58.8611C208.374 56.5364 208.24 54.1383 208.08 53.245C207.625 50.655 206.085 49.15 202.13 49.15C197.93 49.15 194.99 50.515 194.99 52.86C194.99 53.735 195.515 54.75 196.88 54.75C198.318 54.75 199.313 53.3413 200.182 52.11C200.857 51.1541 201.456 50.305 202.13 50.305C203.32 50.305 203.985 52.02 204.16 54.26C203.6 54.645 202.865 55.1 202.165 55.415C201.709 55.6185 201.239 55.8118 200.767 56.006ZM199.96 62.03C199.96 59.23 201.43 57.83 202.62 56.99C203.285 56.535 203.845 56.15 204.23 55.87V56.465C204.136 58.8081 203.901 60.712 203.703 62.3132C203.606 63.1038 203.517 63.8206 203.46 64.48C202.935 64.795 202.41 65.04 201.78 65.04C200.205 65.04 199.96 63.045 199.96 62.03ZM205.871 72.285C205.871 74.805 208.566 75.75 210.036 75.75C216.985 75.75 216.974 69.8728 216.966 65.9414C216.966 65.8138 216.966 65.6882 216.966 65.565V51.145C216.966 49.92 216.581 49.5 216.056 49.5C215.636 49.5 215.111 49.815 214.656 50.165L212.311 52.09C210.981 53.175 211.226 53.84 212.311 54.96V65.565C212.311 68.575 212.101 74.595 210.036 74.595C209.612 74.595 209.613 73.6523 209.615 72.3905C209.616 72.2986 209.616 72.205 209.616 72.11C209.616 71.025 208.741 70.5 207.831 70.5C206.851 70.5 205.871 71.095 205.871 72.285ZM214.201 40.75C212.416 40.75 211.016 42.22 211.016 43.97C211.016 45.755 212.416 47.155 214.201 47.155C215.951 47.155 217.351 45.755 217.351 43.97C217.351 42.22 215.951 40.75 214.201 40.75Z" fill="white"/>
</svg>
